<svg viewBox="13.100000000000023 0 1047.9999999999998 653.8461538461538" xmlns="http://www.w3.org/2000/svg" xmlns:blush="http://design.blush" overflow="visible" xmlns:xlink="http://www.w3.org/1999/xlink" width="1047.9999999999998px" height="653.8461538461538px"><g id="Master/Scene/3 Characters" stroke="none" stroke-width="1" fill="none" fill-rule="evenodd" blush:viewBox="115.27999999999997 61.913580246913625 791.2400000000001 582.4074074074074" blush:i="0"><g id="Background" blush:width="1053" blush:height="680" blush:component="Background" blush:i="0.0" blush:value="Plants" transform="scale(1 1)" blush:viewBox="21.059999999999945 11.052631578947398 1031.9399999999998 600"><g id="Background/Plants" stroke="none" stroke-width="1" fill="none" fill-rule="evenodd" blush:viewBox="21.059999999999945 11.052631578947398 1031.9399999999998 600" blush:i="0.0.0"><g id="Background-Shape-2" opacity=".505" transform="translate(78.000000, 337.000000)" fill="#F2F2F2" blush:i="0.0.0.0"><path d="M896.804511,153.795486 C909.882676,222.535529 592.714919,267.372306 319.721279,236.0818 C46.7276381,204.791294 -78.5089003,82.5983388 51.7591136,17.4891288 C182.027127,-47.6200812 883.726346,85.0554431 896.804511,153.795486 Z" id="Background-Shape" blush:i="0.0.0.0.0"/></g><path d="M711.828432,420.868148 C712.040736,422.92262 712.367285,424.929454 712.828432,426.868148 C712.167933,425.151967 711.873761,423.097495 711.828432,420.868148 Z M882.095686,162.514319 C887.087744,157.457654 890.012055,165.293416 889.548186,169.329469 C889.000658,174.088352 886.609515,178.318121 883.831294,182.037584 C883.533493,182.431285 883.613406,182.415612 883.571577,181.843242 C883.517261,182.122217 883.412376,182.32471 883.265036,182.467646 C883.266285,184.987828 883.390524,187.574463 883.149537,189.791848 C882.45904,196.141831 881.381465,202.50874 879.974873,208.738982 C879.632746,210.254227 879.25316,211.755052 878.837988,213.240831 C881.497588,211.205251 885.031236,209.458049 886.405987,208.925802 C889.973972,207.545971 895.434893,206.140436 898.75877,208.969059 C901.516388,211.315587 901.45021,215.199928 898.966044,217.701304 C896.008019,220.679131 890.9117,220.297969 887.11896,219.793933 C885.40333,219.565737 876.242692,218.347022 878.502104,216.955906 C878.33104,217.010448 877.972681,217.14586 877.586852,217.335188 C877.346489,218.061777 877.096137,218.785233 876.837044,219.504927 C876.889487,219.539407 876.933814,219.575768 876.990002,219.610248 C876.928819,219.579529 876.886365,219.547557 876.832674,219.516838 C874.237378,226.710016 870.723709,233.504479 866.259201,239.799293 C867.833735,239.272688 869.455716,238.896541 871.087063,238.776801 C875.918046,238.421343 885.818502,242.67995 880.115345,248.788572 C874.646932,254.644548 866.977793,247.652609 861.183485,246.440163 C855.102614,254.05149 848.457983,261.302971 841.52679,268.285507 C841.92136,268.432204 842.259741,268.712434 842.440169,269.130583 C845.136604,267.935691 847.973512,266.172817 850.431457,265.784132 C853.978215,265.2243 861.194723,265.150325 863.681387,268.42907 C866.739927,272.460735 863.080167,275.413486 859.188785,275.952003 C853.546186,276.733134 846.376503,273.620521 841.097883,271.494665 C840.477309,271.571148 839.815531,271.356118 839.440315,270.843304 C839.323567,270.798167 839.206819,270.753656 839.093193,270.710399 C832.080838,277.652813 824.827496,284.341327 817.624099,290.877503 C817.697144,290.877503 817.77019,290.876876 817.846357,290.876876 C819.692469,289.799843 821.657202,288.93972 823.758661,288.545393 C828.620236,287.626969 834.268453,287.917228 837.981905,291.594689 C841.680997,295.256477 842.738594,301.37701 838.520692,305.050082 C830.078022,312.402496 819.168041,294.057823 815.153667,293.105545 C807.837269,299.674319 800.145654,305.766642 792.345408,311.722297 C793.206969,311.50852 794.086635,311.364331 794.990025,311.326089 C802.349502,311.008872 819.066901,320.887111 809.617203,329.248851 C801.382431,336.535439 793.094592,321.245704 787.054926,315.733901 C779.707936,321.280811 772.324735,326.78509 765.128206,332.52885 C768.930935,331.729538 772.563225,331.772795 776.520161,333.198391 C780.614448,334.675393 787.162933,338.168542 784.238622,343.647745 C781.264364,349.219731 773.339254,346.19802 769.235603,344.16432 C766.997418,343.055314 762.580983,339.476279 758.623423,337.858848 C747.107228,347.643677 737.004492,358.556318 729.104355,371.621146 C724.172232,379.778513 720.293336,388.566553 717.410853,397.656764 C715.570984,403.458826 712.035464,413.180337 712.238368,420.868148 C710.161881,405.39222 716.333278,387.259443 722.660131,373.855457 C728.477538,361.529758 736.775367,350.876657 746.337442,341.397134 C744.426401,334.454721 725.846657,323.612293 737.594474,317.871041 C743.832049,314.836791 749.749347,320.724114 750.765739,326.684158 C751.463728,330.779768 749.810531,335.793176 748.132985,339.644918 C751.135961,336.759873 754.24632,333.978268 757.441586,331.29885 C761.857397,327.595686 766.368104,324.011636 770.917519,320.477738 C764.098703,313.364177 758.320628,293.746875 768.101839,291.100683 C782.544843,287.206311 774.330673,313.121563 773.082035,317.993916 C772.799842,317.995797 772.585076,317.899252 772.433367,317.708671 C772.489556,318.163809 772.556982,318.650919 772.643762,319.143044 C781.349272,312.416915 790.170904,305.838109 798.730322,298.932684 C798.022344,298.349656 796.960377,296.208128 796.098192,295.052731 C794.152189,292.447915 792.301706,289.736524 791.002497,286.740516 C788.95036,282.006084 787.123601,274.530169 793.346817,272.134741 C800.115063,269.524283 802.821487,278.013287 802.607346,282.981557 C802.458758,286.417657 801.352464,289.631203 800.688812,292.972013 C800.481538,294.013939 800.819919,298.77721 799.496362,296.6664 C799.524457,297.420574 799.505727,297.964733 799.452036,298.348402 C800.98911,297.102103 802.515571,295.840758 804.033291,294.569382 C803.975229,294.395728 803.935273,294.207655 803.935273,293.991997 C803.935273,292.507472 805.454866,292.015346 806.476877,292.50371 C808.481566,290.789108 810.468775,289.050684 812.424143,287.274018 C816.568375,283.510043 820.775663,279.635733 824.959852,275.673028 C824.138247,274.888762 824.534066,273.883196 823.770523,273.056301 C823.008229,272.231286 821.448679,271.715338 820.542168,270.938595 C818.262153,268.983886 816.431649,266.214193 815.144303,263.51534 C813.01912,259.056122 810.455664,249.801033 817.436179,248.094581 C824.63146,246.332334 827.76804,255.276475 827.936606,260.774485 C827.969695,261.839607 826.674857,271.35361 825.885093,274.791591 C833.62915,267.425385 841.267697,259.762024 848.235101,251.923127 C846.253512,251.80088 840.845658,247.444474 839.767458,246.276539 C837.136576,243.427855 833.04229,237.223316 838.068685,234.316956 C842.537563,231.739724 847.651987,236.07983 849.293323,240.123406 C849.563029,240.789186 850.317206,246.894046 850.25852,249.612333 C853.146622,246.284689 855.911108,242.930087 858.496414,239.554798 C860.22016,237.311083 861.842142,235.000289 863.370476,232.633699 C863.043332,232.424938 862.743659,232.075121 862.465837,231.64506 C855.32175,230.04393 846.721127,218.315676 855.392923,214.84635 C859.521547,213.196947 863.692,217.266854 865.501902,220.514881 C865.872748,221.179406 866.358468,224.448121 866.758032,227.027233 C871.210678,219.15511 874.738082,210.75889 877.541276,202.107517 C876.921951,201.918816 876.415628,201.411645 876.388783,200.583496 C872.993734,198.40498 870.317277,196.598849 868.075346,192.634263 C866.68249,190.171756 864.234534,184.584097 868.763346,183.495153 C874.656921,182.078334 877.837828,191.133438 878.08381,195.524323 C878.112529,196.034002 878.03324,197.50787 877.943338,198.85761 C878.146242,198.840683 878.34977,198.854475 878.547679,198.900239 C880.165291,193.537015 881.517566,188.089784 882.652579,182.621866 C879.538474,181.436377 879.862496,164.772453 882.095686,162.514319 Z M895.663291,177.553408 C900.699839,175.376482 907.096049,178.542571 904.028861,184.834517 C900.743478,191.572193 889.927275,191.090703 883.828432,190.634117 C884.441247,190.634117 886.740391,184.418162 887.464173,183.498604 C889.598736,180.785909 892.566802,178.894429 895.663291,177.553408 Z" id="Leaf-Bottom" fill="#F2F2F2" transform="translate(808.328432, 293.868148) scale(-1, 1) rotate(-3.000000) translate(-808.328432, -293.868148)" blush:i="0.0.0.1"/><path d="M102.997012,218.484568 C103.209315,219.854217 103.535864,221.192106 103.997012,222.484568 C103.336512,221.340448 103.04234,219.9708 102.997012,218.484568 Z M227.413368,32.1338858 C231.058363,28.4775281 233.193575,34.1433867 232.854876,37.061764 C232.455094,40.5028019 230.70918,43.5612505 228.680638,46.2507088 C228.463196,46.5353843 228.521545,46.5240516 228.491003,46.1101842 C228.451344,46.3119049 228.374761,46.4583224 228.26718,46.561676 C228.268091,48.3839619 228.358806,50.2542981 228.182847,51.8576377 C227.678674,56.4491636 226.891873,61.0529288 225.864838,65.5578734 C225.615031,66.6535115 225.337873,67.7387235 225.034731,68.8130563 C226.976662,67.3411751 229.556786,66.0778142 230.560572,65.6929583 C233.165768,64.6952341 237.153107,63.6789244 239.580064,65.7242363 C241.593564,67.4209568 241.545243,70.2296343 239.731407,72.038321 C237.571579,74.1915196 233.850458,73.9159102 231.081155,73.551453 C229.828473,73.38645 223.139754,72.5052251 224.789483,71.4993415 C224.664579,71.538779 224.40292,71.6366929 224.121204,71.773591 C223.9457,72.2989714 223.762904,72.8220853 223.573725,73.3424794 C223.612017,73.3674112 223.644382,73.3937029 223.685409,73.4186346 C223.640735,73.3964227 223.609737,73.3733041 223.570534,73.3510922 C221.675556,78.5523133 219.11002,83.4652324 215.850221,88.0168674 C216.99988,87.6360912 218.184184,87.3641083 219.375326,87.277527 C222.902711,87.0205031 230.131615,90.0998037 225.967405,94.5168072 C221.974595,98.7511287 216.374907,93.6954186 212.144142,92.8187268 C207.704141,98.3223023 202.852506,103.565681 197.791635,108.614591 C198.079733,108.720665 198.326805,108.923292 198.458547,109.225646 C200.427372,108.361647 202.498765,107.086954 204.293455,106.805904 C206.883152,106.401103 212.152347,106.347613 213.968007,108.718398 C216.201227,111.633602 213.529021,113.768669 210.687694,114.158058 C206.567702,114.722876 201.332695,112.472216 197.478464,110.935059 C197.025347,110.990363 196.542144,110.834879 196.268177,110.464075 C196.182932,110.431438 196.097688,110.399253 196.014723,110.367975 C190.894591,115.387874 185.598499,120.224184 180.338876,124.950342 L180.338876,124.950342 L180.50116,124.949889 C181.849115,124.171111 183.283682,123.549176 184.81808,123.264047 C188.367802,122.599956 192.491897,122.809836 195.203306,125.468923 C197.90423,128.116677 198.676444,132.542293 195.596706,135.198207 C189.432217,140.514568 181.466199,127.249958 178.535069,126.561388 C173.192937,131.311117 167.576837,135.716335 161.88142,140.022732 C162.510496,139.868155 163.152792,139.763895 163.81241,139.736243 C169.185996,139.506871 181.392351,146.649597 174.492572,152.695778 C168.479881,157.964542 162.428442,146.908887 158.018528,142.92343 C152.654059,146.934272 147.26315,150.91429 142.008542,155.06747 C144.785138,154.489506 147.437286,154.520784 150.326477,155.5516 C153.315956,156.619586 158.09739,159.145401 155.962178,163.107287 C153.790498,167.136261 148.00391,164.951331 145.007594,163.48081 C143.373363,162.678913 140.148665,160.090995 137.259017,158.921469 C128.850367,165.996652 121.473766,173.887332 115.705412,183.334207 C112.10418,189.232611 109.27197,195.58704 107.1673,202.159962 C105.823904,206.355299 103.242412,213.384699 103.390564,218.943578 C101.8744,207.753292 106.380499,194.641899 111.000106,184.949786 C115.247737,176.037357 121.306469,168.334346 128.288301,161.479922 C126.892938,156.460023 113.326775,148.620113 121.904547,144.468747 C126.458966,142.274751 130.779534,146.531738 131.521661,150.841308 C132.031304,153.802749 130.824207,157.427829 129.599332,160.212934 C131.791982,158.126825 134.063037,156.115511 136.396089,154.178086 C139.620332,151.500413 142.913864,148.908869 146.235659,146.353589 C141.256841,141.209937 137.037929,127.025119 144.179766,125.111718 C154.725451,122.295788 148.727804,141.034508 147.816099,144.557594 C147.610054,144.558954 147.453241,144.489145 147.342469,144.351341 C147.383495,144.68044 147.432727,145.032658 147.496091,145.388502 C153.852494,140.524994 160.293686,135.768011 166.54342,130.774857 C166.026484,130.353284 165.251079,128.804794 164.621547,127.969353 C163.200656,126.085871 161.84951,124.125327 160.900882,121.958983 C159.402495,118.535624 158.068672,113.129962 162.612607,111.397884 C167.554501,109.510322 169.53062,115.648524 169.374263,119.240966 C169.26577,121.72553 168.458,124.049172 167.973429,126.464834 C167.822086,127.218227 168.069158,130.662438 167.102751,129.13616 C167.123264,129.681486 167.109589,130.074954 167.070386,130.352377 C168.192694,129.451207 169.307252,128.539157 170.415429,127.619855 C170.373035,127.494289 170.34386,127.358298 170.34386,127.202361 C170.34386,126.128935 171.453405,125.77309 172.199635,126.126215 C173.663376,124.886426 175.114354,123.629411 176.542083,122.344745 C179.56803,119.623102 182.640018,116.821677 185.69514,113.956337 C185.095239,113.389252 185.384249,112.662151 184.826742,112.064242 C184.270146,111.467693 183.131427,111.094623 182.46953,110.532978 C180.804757,109.119573 179.468199,107.116872 178.528231,105.165394 C176.97651,101.941036 175.104781,95.2488947 180.201665,94.0149986 C185.455362,92.7407583 187.745563,99.2080601 187.868643,103.183545 C187.892804,103.95371 186.947366,110.833066 186.370713,113.31899 C192.025104,107.992657 197.602456,102.451457 202.689767,96.7833319 C201.242892,96.6949375 197.2943,93.5449213 196.507043,92.7004142 C194.586082,90.6405965 191.596603,86.1542373 195.266669,84.0527156 C198.52966,82.1891789 202.264001,85.3274091 203.462436,88.2512261 C203.659365,88.7326359 204.210034,93.1469196 204.167184,95.1124499 C206.275956,92.7063072 208.29447,90.2806724 210.182154,87.8400785 C211.440762,86.2177 212.625066,84.546818 213.740993,82.8355918 C213.502126,82.6846412 213.283317,82.4316971 213.080463,82.1207299 C207.864146,80.962989 201.584325,72.4825599 207.916113,69.9739703 C210.930664,68.7813249 213.975756,71.7241807 215.297272,74.0727537 C215.568048,74.5532569 215.922701,76.916789 216.214447,78.7816856 C219.465585,73.0895352 222.04115,67.018422 224.087926,60.7628136 C223.635721,60.6263688 223.266025,60.2596451 223.246423,59.6608292 C220.767499,58.0855945 218.81326,56.779623 217.176295,53.9129224 C216.159289,52.1323406 214.371892,48.0920335 217.678644,47.3046428 C221.981889,46.2801736 224.304456,52.8277104 224.484062,56.0026583 C224.505031,56.3711952 224.447138,57.4369151 224.381495,58.4128807 C224.529647,58.4006415 224.678255,58.4106142 224.82276,58.4437054 C226.003873,54.5656815 226.991249,50.6269148 227.819989,46.673189 C225.546198,45.8159893 225.782785,33.7666903 227.413368,32.1338858 Z M236.702387,42.658046 C240.299921,41.1030993 244.868643,43.3645911 242.677794,47.8588384 C240.331092,52.6714644 232.605232,52.3275425 228.248916,52.0014097 C228.686641,52.0014097 230.328887,47.5614418 230.845874,46.9046148 C232.370562,44.9669752 234.490609,43.6159186 236.702387,42.658046 Z" id="Leaf-Top" fill="#C1DEE2" opacity=".2" transform="translate(173.122964, 126.714073) rotate(-3.000000) translate(-173.122964, -126.714073)" blush:i="0.0.0.2"/><g id="Plant-Right" opacity=".7" transform="translate(795.000000, 208.000000)" blush:i="0.0.0.3"><path d="M79.9047528,113.040378 C66.2530447,113.763024 50.2943362,123.453253 50.3969417,138.364313 C50.4717916,149.198479 51.9215094,159.856965 51.4184788,170.735674 C51.0157194,179.430065 49.1251777,187.934396 46.1884145,196.124248 C43.3645394,203.999655 36.5431303,211.167853 35.436189,219.380461 C34.7305556,224.613392 36.1801359,231.717944 38.4174204,236.528898 C41.1381257,242.378219 39.9806746,242.014971 36.3655703,247.542924 C29.2817053,258.37603 23.0341453,269.378157 19.1082064,281.839931 C13.4530146,299.789359 10.6714461,320.367962 15.4148106,338.86673 C16.0178728,341.21586 17.3353725,349.734582 20.6839214,349.987756 C24.4238591,350.27121 22.1932685,345.554422 21.8310908,343.993101 C19.5216852,334.030746 17.4849615,325.324509 17.9135797,314.914948 C19.5678962,274.751412 45.2035015,245.709474 60.1509621,210.198324 C60.9846805,208.360426 62.6955789,204.012856 63.9005736,201.136619 C65.8029769,196.595678 67.3104972,188.177093 70.1621387,184.658557 C75.5325909,178.03009 71.2830113,190.667575 70.3556501,193.092328 C69.1832784,196.159421 67.8821244,199.424932 66.6353083,202.135537 C60.9464558,214.690583 54.5660296,228.413437 48.6881887,241.356913 C80.3924105,245.15732 98.2859955,205.641673 104.022858,180.295993 C108.749645,159.413931 111.985935,111.412785 79.9047528,113.040378" id="Leaf-Me-Alone!" fill="#56919C" transform="translate(60.000000, 231.500000) scale(-1, 1) rotate(6.000000) translate(-60.000000, -231.500000)" blush:i="0.0.0.3.0"/><path d="M210.80537,78.1211996 C187.982635,79.932006 173.33094,94.991753 166.510526,116.055531 C162.834567,127.406956 162.413232,139.068178 160.370472,150.73361 C157.297501,168.284374 150.685653,181.584667 137.763871,194.088576 C133.761608,197.961058 130.812263,201.937087 128.715679,206.190925 C124.553629,210.438027 120.930652,215.244115 118.268925,221.120186 C114.86881,228.624383 113.90672,237.627904 117.832452,245.109372 C118.887892,247.120537 121.521026,251.158021 124.250033,252.992399 C114.032868,274.752382 108.415067,298.584143 109.048331,322.385598 C109.430981,336.75335 110.132365,351.126994 110.950647,365.477066 C111.170985,369.330186 112.42574,375.692843 114.310394,369.230849 C116.035261,363.320262 113.872239,354.041458 113.672084,347.866532 C112.69822,317.785763 111.865642,290.435094 124.248351,262.330974 C125.546836,259.385362 126.923534,256.463322 128.357419,253.564853 C128.441517,253.516026 128.519729,253.457097 128.598782,253.399851 C128.653446,253.441944 128.703065,253.487403 128.757729,253.528654 C128.849397,253.365336 128.974704,253.17087 129.121036,252.953674 C129.532279,252.529385 129.891381,251.99313 130.232822,251.394579 C131.331152,249.872525 132.574133,248.084448 132.580861,247.105384 C132.580861,247.097807 132.576656,247.086022 132.576656,247.078445 C140.242263,234.565276 149.022178,222.741577 157.990476,211.149386 C157.923197,211.23357 167.718185,197.897078 166.203566,205.272473 C165.473588,208.826738 158.268843,215.595164 155.359024,219.35989 C148.922101,227.735396 141.3633,238.347681 135.081959,248.609759 C134.236766,249.095503 133.042563,251.480447 132.178869,253.256738 C131.702028,254.156669 131.257146,255.064177 130.819832,255.854668 C153.076582,263.208176 170.390004,248.395931 182.195796,231.167594 C182.210092,231.147389 182.222707,231.126343 182.236163,231.106139 C185.828864,226.345511 189.509028,221.618557 194.10671,217.855515 C201.777363,211.576201 209.992135,210.468334 219.036121,207.377925 C243.699779,198.951066 254.18606,166.987092 257.516373,143.269822 C261.273908,116.512653 242.894113,75.4828606 210.80537,78.1211996" id="Leaf-Me-Alone!" fill="#89C5CC" blush:i="0.0.0.3.1"/><path d="M187.087285,8.28187838 C160.498481,29.1635113 144.586107,61.0733802 131.288496,91.3053591 C116.436639,125.071454 104.873047,159.852852 99.4843227,196.372108 C95.9443747,220.365462 91.8946121,244.44009 89.9250364,268.625714 C89.2249833,277.215152 88.8748455,285.868946 89.0407006,294.486685 C89.0545865,295.194866 89.4310473,314.437622 92.9380414,310.458848 C94.9325477,308.196212 92.5847722,290.502543 92.6250129,287.616161 C92.8548439,271.35938 94.6480975,255.202131 97.0075499,239.126854 C100.892071,212.659438 103.8149,186.195152 110.209077,160.179766 C111.163144,156.295431 112.0616,152.201098 113.539379,148.477679 C115.109085,144.518959 113.591965,146.130097 117.057176,144.962594 C120.424285,143.827288 124.27953,144.598829 127.821221,143.078763 C141.869801,137.048323 151.32577,117.815648 158.339102,105.310098 C166.360518,91.0095004 172.210631,75.380055 177.309925,59.8610252 C181.055021,48.4585852 184.191433,37.0431561 186.706808,25.3142977 C187.499429,21.6177491 188.064185,17.7150456 189.314089,14.1464607 C189.650899,13.1838012 190.889167,11.5711488 190.976475,10.6889811 C191.161137,8.82194319 190.19407,7.57272465 190.321563,6 C189.227765,6.73737876 188.148642,7.49851591 187.087285,8.28187838" id="Leaf-Me-Alone!" fill="#89C5CC" transform="translate(140.000000, 158.500000) rotate(-8.000000) translate(-140.000000, -158.500000)" blush:i="0.0.0.3.2"/><path d="M38,328 C38,368.316787 70.6832133,401 111,401 C151.316787,401 184,368.316787 184,328" id="Base" fill="#89C5CC" blush:i="0.0.0.3.3"/><path d="M161.027565,264.084806 C179.094613,262.752829 199.271153,277.328505 207.986064,292.49664 C215.01153,304.726145 213.827993,320.785081 209.488635,333.777767 C206.582823,342.476182 200.240879,354.878099 189.6648,354.998958 C176.432916,355.150242 175.794849,338.796344 175.538949,329.235863 C175.198872,316.525461 173.592762,305.452985 163.577306,296.789222 C161.24306,294.770973 158.691635,292.995286 156.33382,291.004928 C152.641788,287.889659 148.561698,284.700014 148.086094,279.546212 C147.429508,272.435859 151.443098,271.156282 157.571231,272.477271 C158.615876,272.702085 169.138923,277.424009 167.580795,273.69177 C167.105191,272.551646 165.367764,271.648167 163.174937,270.971192 C157.500522,270.354223 150.733481,269.63837 148.787294,270.066022 C127.791706,274.672159 119.617215,303.755053 117.446273,322.232845 C117.21196,324.227477 117.022484,326.228615 116.857255,328.232828 L112.999987,328.232604 C113.26763,323.393002 113.621136,318.561868 114.430188,313.776147 C117.524558,295.473303 127.199937,268.591213 148.420279,265.620466 C149.203131,265.50975 152.082849,265.491157 155.57117,265.695686 C157.224419,264.771923 159.076327,264.213271 161.027565,264.084806 Z" id="Leaf-Me-Alone!" fill="#56919C" blush:i="0.0.0.3.4"/></g><g id="Plant-Left" opacity=".5" transform="translate(22.000000, 79.000000)" blush:i="0.0.0.4"><path d="M178.22298,111.444518 C182.425309,105.452509 190.223629,90.2347729 196.138329,88.0936482 C199.947942,86.7145659 198.837195,100.980115 198.884241,103.700243 C199.067454,114.223987 198.04293,124.681002 196.777726,135.11639 C194.498335,153.936569 187.044926,170.697369 176.822023,186.715278 C171.561534,194.957467 165.391397,203.299596 156.84547,208.442327 C152.911771,210.810658 148.178543,211.207195 144.293769,213.247706 C139.769382,215.623126 142.233354,213.702848 140.194367,218.417487 C137.362802,224.963133 136.457106,233.407714 135.146985,240.392151 C129.131553,272.454512 114.568305,441.944513 117.093014,474.558062 C117.317249,477.448784 113.286509,478.140055 113.085292,474.611088 C112.015789,455.899518 121.270437,326.322179 125.939564,283.946664 C130.608691,241.571148 135.333634,204.134499 140.071325,189.473898 C145.818851,171.687472 156.199212,150.297922 164.840137,133.71131 C168.853782,126.005544 173.228734,118.565238 178.22298,111.444518 Z" id="Leaf" fill="#56919C" blush:i="0.0.0.4.0"/><path d="M209.414132,319.277765 C220.349167,311.249697 232.185522,326.401056 222.290441,334.430358 C216.820206,338.868469 211.101395,337.289712 207.88186,333.591199 C205.791868,336.13879 203.835706,338.802543 201.956089,341.052489 C196.229376,347.9085 190.816767,354.92815 185.643881,362.111477 C174.898009,377.034662 165.688992,392.800688 156.060308,408.278421 C146.558057,423.5541 137.131786,438.908021 128.519073,454.570722 C121.222883,467.840829 111.497988,483.452044 109,498 C112.790111,467.146303 127.171863,437.490438 144.298022,410.29054 C161.284824,383.314089 180.779154,353.852808 207.081026,332.563583 C204.404139,328.627042 204.329828,323.00793 209.414132,319.277765 Z" id="Leaf" fill="#C1DEE2" blush:i="0.0.0.4.1"/><path d="M1.9131966,244.030768 C8.03244063,245.227492 18.0312164,259.070175 23.0752982,264.344345 C29.0698505,270.611956 34.5083971,277.292338 39.6348672,284.291716 C50.6711078,299.357587 60.5410853,315.375735 68.9339235,332.079859 C82.6164473,359.310923 93.5779281,387.264554 101.533144,416.917658 C106.40282,435.069395 109.555733,453.882964 111.42432,472.565152 C111.77721,476.088501 115.4712,503.252852 110.148387,503.985007 C105.361077,504.644266 106.839698,483.358557 106.608745,480.463176 C103.998072,447.797866 96.1772343,416.014794 85.2985211,385.226103 C82.9289815,378.519078 80.7275953,370.304171 76.9381423,364.268497 C74.2092052,359.921096 76.9185722,361.437175 72.1228242,359.791894 C68.0049102,358.378312 63.3131333,358.72373 59.0962962,356.993389 C49.9356343,353.236662 42.6005721,345.943735 36.1708879,338.607909 C23.6757579,324.351374 13.774003,308.928035 8.61263648,290.66039 C5.74946717,280.531578 3.11836073,270.343849 1.65825821,259.901833 C1.28055511,257.202878 -2.02816228,243.259967 1.9131966,244.030768 Z" id="Leaf" fill="#56919C" blush:i="0.0.0.4.2"/><path d="M26.061363,13.7160319 C49.111288,53.6904115 68.0527721,97.6012194 80.2834249,142.076227 C87.6937407,169.023152 92.875997,196.674657 98.0249813,224.126418 C105.997255,266.632047 113.538111,309.134396 115.683127,352.395051 C117.841152,395.906414 122.108499,446.091658 107.860834,488 C114.977614,445.451647 108.201957,400.162237 107.002263,357.34982 C106.428958,336.911865 104.767627,316.673726 102.588271,296.3552 C100.473423,276.645138 97.0183596,257.028931 93.8009172,237.47379 C92.2336415,227.950082 90.5876488,218.440705 88.9117997,208.936528 C88.4115013,206.100946 88.2001646,197.686783 86.4014385,195.749671 C84.5910631,193.799805 75.3542884,193.004911 72.454369,191.574216 C66.6149274,188.69262 61.1221445,184.599523 56.2608889,180.274642 C46.9417982,171.983953 38.8346584,161.151161 32.435855,150.472492 C17.6306837,125.76373 11.7115834,95.6100441 12.0107586,66.9941546 C12.0682413,61.4382419 21.003398,1.60995132 17.4148953,0.786066265 C17.6309536,0.533029377 17.8353283,0.27176118 18.0280364,0 C20.7448404,4.54878452 23.4108122,9.12839556 26.061363,13.7160319 Z" id="Leaf" fill="#89C5CC" blush:i="0.0.0.4.3"/><path d="M274.846162,157.887288 C275.201814,157.374304 277.516546,153.806661 276.35092,154.034666 C278.724178,153.570439 273.086653,157.969398 279,155.270217 C276.192302,157.921907 277.812715,161.366495 277.85019,164.93538 C277.91133,170.729664 276.941861,176.476433 275.850557,182.146394 C274.126127,191.108872 271.55719,199.823019 267.828427,208.1592 C259.70147,226.325634 245.90148,243.814146 229.518328,255.171668 C221.430419,260.779333 213.503908,262.688536 204.279644,265.270093 C198.453207,266.901031 197.991162,269.91496 194.898475,275.568863 C188.459734,287.344734 182.135661,299.078246 176.457263,311.251437 C169.676879,325.787507 163.094762,340.339599 156.885915,355.131559 C135.969422,404.957486 118.945337,456.577892 110.004808,510 C109.785907,478.518515 117.068634,446.095278 126.255091,416.088186 C132.946871,394.2257 141.658313,373.150925 150.949917,352.289498 C153.201461,347.235572 156.613471,340.734509 157.569628,335.154756 C158.23913,331.245304 156.192265,327.485558 155.255097,323.367253 C151.601499,307.329812 151.862999,289.362708 155.071402,273.239515 C158.608912,255.460636 168.839228,247.208854 186.145128,244.690591 C192.474243,243.769436 200.51871,244.107045 206.322196,241.408429 C212.645007,238.469723 215.253262,228.810237 218.848644,222.609606 C228.505717,205.953401 239.979718,189.979083 253.15504,175.944848 C256.803162,172.05859 260.726377,168.473254 264.88847,165.150086 C267.513083,163.053353 273.057504,160.47018 274.846162,157.887288 Z" id="Leaf" fill="#89C5CC" blush:i="0.0.0.4.4"/><path d="M80.7914533,476 L142.208547,476 C144.96997,476 147.208547,478.238576 147.208547,481 C147.208547,481.244141 147.190665,481.487955 147.155046,481.729484 L142.408062,513.917935 C140.96096,523.730477 132.540739,531 122.622066,531 L100.377934,531 C90.4592609,531 82.03904,523.730477 80.5919379,513.917935 L75.8449542,481.729484 C75.4420714,478.997608 77.3300935,476.456384 80.0619696,476.053501 C80.3034985,476.017881 80.547312,476 80.7914533,476 Z" id="Base" fill="#C1DEE2" blush:i="0.0.0.4.5"/></g><g id="Maceta" transform="translate(32.000000, 523.000000)" fill="#F2F2F2" blush:i="0.0.0.5"><path d="M15.4177215,48.4556962 C15.4177215,69.7431274 17.0976047,87 39.6455696,87 C62.1935345,87 63.8734177,69.7431274 63.8734177,48.4556962" id="Base" blush:i="0.0.0.5.0"/><path d="M46.353417,35.1741665 C45.5269187,36.603205 44.7899627,38.0608242 44.1390143,39.5403256 C44.1160396,36.4933476 44.2845204,33.4240409 44.7446025,30.3127562 C45.5310424,24.9833358 46.7322042,19.6816031 47.8609075,14.3883552 C48.6720893,10.5844334 48.6208382,3.75184321 51.6994412,0.720495335 C52.5436123,0.0653705071 52.7468496,1.35061199 52.7468496,1.90838357 C52.7574533,2.02627925 52.7444932,-0.368253357 51.9250641,0.0488472497 C47.0544384,2.56440155 45.4762567,10.4741295 43.916926,14.4343524 C41.6418466,20.2148131 39.7060851,26.1238872 38.9090415,32.1379063 C38.7075715,33.6571528 38.5980001,35.1759528 38.5726691,36.6920733 C38.4071338,36.2865836 38.2516131,35.877968 38.0795978,35.473818 C35.2684432,28.8805917 31.4746806,22.4472391 26.743081,16.51405 C25.578443,15.0541979 10.9341658,0.649489986 9.78778975,2.85422841 C9.90089571,3.17442235 10.1377113,3.44013419 10.4988257,3.65136394 C10.5200331,3.67547897 10.5206222,3.66208173 10.5082512,3.62635577 C11.3683278,5.01564911 13.8136552,7.16143971 14.5753532,8.37880186 C16.4922637,11.4423031 17.9820814,14.6933656 19.4960519,17.8823543 C22.69483,24.6216105 25.6620943,31.428746 28.5386382,38.2501718 C29.2084376,39.839084 29.9065135,41.4190647 30.6187276,42.994133 C23.2768544,32.4045113 13.4825846,22.7906549 -1.42108547e-14,17.2870705 C4.60494447,19.6298004 7.62404905,24.037491 10.733874,27.4122547 C14.4846328,31.4827815 18.4350943,35.4438975 22.1929222,39.5099586 C26.6252623,44.3066155 31.8405077,49.35782 36.1037779,54.6658048 C40.2333239,63.3356026 44.2462293,72.0147785 46.7233678,81.1284714 C45.7083596,77.9796744 46.6438402,73.6282523 46.4700576,70.3236008 C46.3322097,67.6932768 46.0247028,65.0843884 45.6035009,62.4804124 C46.1242596,63.6549034 46.5731489,64.8302875 46.7763862,65.923502 C46.5908217,64.089867 46.3769808,62.2678429 46.1472343,60.4551969 C46.7369169,58.7582137 47.3159959,57.1746605 47.7071541,55.8702163 C49.7118395,49.1787436 52.0988467,42.6024871 55.349465,36.192803 C58.3573768,30.263633 61.8076979,24.4099342 65.5672931,18.7348651 C67.3210246,16.088911 69.0989091,13.4527816 70.8656007,10.8121864 C72.0219914,9.08349646 73.1230073,6.31562756 74.733,4.65928264 C64.3260729,14.1739995 52.9559778,23.7574888 46.353417,35.1741665" id="Fill-27" blush:i="0.0.0.5.1"/></g><g id="Top-Leaves" transform="translate(808.000000, 0.000000)" fill="#F2F2F2" blush:i="0.0.0.6"><path d="M211.459988,136.913619 C211.697988,126.527619 207.442988,116.955619 202.732988,107.921619 C193.563988,90.3346193 188.977988,79.8126193 190.459988,58.9256193 C191.331988,46.6416193 192.373988,33.6626193 186.103988,22.5076193 C181.538988,14.3846193 171.962988,5.69461932 161.850988,7.16361932 C145.843988,10.8096193 136.907988,26.0616193 133.481988,41.2056193 C129.235988,59.9756193 134.097988,73.9796193 148.271988,86.0066193 C156.258988,92.7816193 160.763988,99.7606193 162.941988,110.078619 C164.684988,118.329619 164.189988,127.791619 167.170988,135.726619 C171.627988,147.588619 179.674988,154.832619 191.778988,157.035619 C187.410988,133.523619 181.274988,109.229619 171.435988,87.4316193 C170.552988,85.2746193 164.205988,76.0546193 166.846988,73.7256193 C169.755988,71.1616193 174.556988,85.9036193 174.518988,85.8116193 C177.307988,92.3626193 179.660988,99.1256193 181.922988,105.916619 C181.910988,105.918619 181.897988,105.917619 181.884988,105.919619 C184.219988,112.892619 186.494988,119.937619 188.667988,127.028619 C189.511988,130.003619 190.301988,132.995619 191.003988,136.027619 C192.033988,140.476619 192.155988,152.193619 195.076988,155.672619 C195.701988,156.416619 196.337988,156.925619 196.978988,157.258619 C198.148988,162.164619 199.240988,167.081619 200.197988,172.008619 C202.696988,184.876619 204.141988,198.075619 202.521988,211.160619 C202.048988,214.979619 197.189988,228.261619 198.799988,231.652619 C201.742988,237.854619 203.397988,228.290619 204.025988,225.445619 C209.218988,201.883619 207.341988,179.762619 201.675988,156.694619 C206.884988,153.106619 211.362988,141.121619 211.459988,136.913619" id="Leaf" transform="translate(171.734760, 120.352443) rotate(-18.000000) translate(-171.734760, -120.352443)" blush:i="0.0.0.6.0"/><path d="M115.85853,100.65925 C108.257019,101.771171 101.081536,111.378886 97.541036,117.784796 C93.1599315,125.711405 90.104439,134.755685 87.8025125,143.463054 C84.0100599,157.806497 83.4975663,173.726407 83.4506116,188.416535 C83.4448854,190.186755 83.0755464,211.810007 85.6036573,211.455273 C88.1082908,211.103988 86.5221374,188.659157 86.7357241,184.011394 C87.1903832,174.09264 86.510685,164.31072 88.8372342,154.517877 C91.2456677,144.377773 95.6617019,134.821802 101.24187,126.063265 C101.958215,124.939269 103.473937,120.760077 105.195801,121.725391 C106.879872,122.669432 102.214748,128.236513 101.552229,129.318538 C98.8168301,133.786922 96.4416084,138.518625 94.4746637,143.379689 C90.7892908,152.487211 88.8744544,162.017885 88.9397329,171.831426 C94.724898,172.719698 99.7650864,169.33219 101.705691,163.687492 C103.382318,158.808606 103.546087,153.133437 105.450616,148.52017 C106.762485,145.343087 108.849107,142.644924 111.400695,140.363587 C118.131826,134.346332 125.159001,132.841156 127.165456,122.85456 C128.738439,115.02569 126.785237,99.0684087 115.85853,100.65925" id="Leaf" transform="translate(105.535828, 156.004078) scale(-1, 1) rotate(58.000000) translate(-105.535828, -156.004078)" blush:i="0.0.0.6.1"/><path d="M29.3523143,41.0512563 C40.3903669,40.2462156 52.7172123,49.0556901 58.0415826,58.2232442 C62.3337871,65.6147029 61.6107055,75.3206535 58.9595774,83.1733759 C57.1842731,88.4306594 53.3096661,95.9263239 46.8482165,95.9993701 C38.7642046,96.0908055 38.3743782,86.2065813 38.2180362,80.4282689 C38.0102659,72.7461579 37.0290143,66.0540017 30.910077,60.8176615 C29.4839707,59.597841 27.9251794,58.5246237 26.4846732,57.3216599 C24.2290287,55.4388046 21.7362997,53.5109978 21.4457299,50.3960624 C21.0445893,46.0985958 23.4966899,45.3252255 27.240669,46.1236256 C27.878894,46.2595018 34.3079438,49.1134119 33.3560062,46.8576634 C33.0654364,46.1685771 32.0039566,45.6225184 30.6642498,45.2133575 C27.1974692,44.8404643 23.0631495,44.407806 21.8741275,44.6662772 C9.04688492,47.450206 4.05268426,65.0277791 2.72634882,76.1956755 C2.57618831,77.4602301 2.45616882,78.7291115 2.35177061,79.9999262 L-4.75510154e-05,80.0008615 C0.164716163,77.0159735 0.379303579,74.0359397 0.883673399,71.0844844 C2.77417712,60.0223263 8.68534409,43.7749092 21.6499002,41.9794028 C22.1281833,41.9124864 23.8875448,41.9012485 26.0187329,42.0248651 C27.0287844,41.4665469 28.1602067,41.1288998 29.3523143,41.0512563 Z" id="Leaf-Me-Alone!" transform="translate(30.552422, 68.500000) scale(-1, 1) translate(-30.552422, -68.500000)" blush:i="0.0.0.6.2"/></g></g></g><g transform="translate(728.000000, 427.000000) scale(-1, 1) translate(-728.000000, -427.000000) translate(578.000000, 214.000000) scale(1 1)" blush:has-customizable-colors="true" blush:width="300" blush:height="426" id="Master/Pose/Standing" blush:component="Master/Pose/Standing" blush:i="0.1" blush:value="Standing" blush:viewBox="-1.2784090909090935 12.779999999999973 311.0795454545455 413.2199999999999"><g id="Master/Pose/Standing" stroke="none" stroke-width="1" fill="none" fill-rule="evenodd" blush:has-customizable-colors="true" blush:viewBox="-1.2784090909090935 12.779999999999973 311.0795454545455 413.2199999999999" blush:i="0.1.0"><g id="Head/Front" transform="translate(82.000000, 0.000000) scale(1 1)" blush:width="136" blush:height="104" blush:component="Head/Front" blush:i="0.1.0.0" blush:value="Wavy" blush:viewBox="15.639999999999986 22.732984293193724 80.92 81.67539267015704"><g id="Head/Front/Wavy" stroke="none" stroke-width="1" fill="none" fill-rule="evenodd" blush:viewBox="15.639999999999986 22.732984293193724 80.92 81.67539267015704" blush:i="0.1.0.0.0"><g id="Head" transform="translate(54.000000, 31.000000)" fill="#d4a181" blush:color="Skin-500" blush:i="0.1.0.0.0.0"><path d="M38.1433414,9.13393292 C43.9381521,19.9350547 43.249578,47.3329958 35.7603014,49.2634576 C32.773664,50.0333035 26.4113241,48.1475566 19.935865,44.2446031 L24,73 L0,73 L8.26160177,34.4893378 C3.65406109,29.0807313 0.535660132,22.452516 1.05677633,15.0254539 C2.55833022,-6.37502057 32.3485306,-1.66718886 38.1433414,9.13393292 Z" id="SKIN" blush:i="0.1.0.0.0.0.0"/></g><path d="M94.4090961,44.9836328 C94.1713645,43.583583 93.5903632,42.028843 93.1215639,40.7042644 C92.5171614,38.996708 91.602499,37.4571303 90.5959364,36.0061417 C88.7009022,33.2743581 86.427574,30.8074902 83.917599,28.760058 C79.3328188,25.0202318 73.4966155,22.8630853 67.7574266,23.5636213 C64.8597041,23.9172965 62.046753,25.0226169 59.6525443,26.8623756 C57.4894034,28.5246153 55.4087091,30.9715506 52.6076911,31.147366 C49.5599529,31.3385142 46.7662186,28.6484698 44.321953,26.9870819 C41.5660327,25.1141023 38.6342158,23.7493178 35.4132155,23.2188049 C30.0172962,22.3303577 24.9482191,24.1534208 21.2294392,28.5804946 C17.2721527,33.2915649 14.3955069,40.2003282 16.9942826,46.442458 C17.4773396,47.6028059 18.0987894,48.5810349 18.9906704,49.3917962 C19.8086285,50.1352639 21.0578819,50.926263 21.3895284,52.1142098 C21.7417865,53.3769463 20.6895063,55.005965 20.2814572,56.1453581 C19.6968915,57.7777841 19.2169339,59.4913033 19.3875614,61.2656423 C19.6679112,64.1795448 21.4990957,66.961245 23.4327187,68.8764749 C25.4004362,70.8254368 27.8222304,71.9430234 30.408918,72.4582035 C32.1361143,72.802168 33.9012795,72.9919533 35.6566813,72.8628175 C36.5281056,72.7987608 37.2970916,72.5566738 38.1413953,72.3641627 C38.9624528,72.1769329 39.4213338,72.3949985 40.1179464,72.8452701 C43.3539792,74.9373376 46.8334778,75.746736 50.5700799,75.4356517 C53.723666,75.1729507 57.3584495,74.4086987 59.9310344,72.2479746 C62.7879984,69.84823 62.7311226,66.5390835 62.0588411,63.0035235 C62.7711061,63.3565173 64.7416132,63.575094 63.5641132,62.1680594 C63.0976384,61.6107994 62.2162957,61.3840451 61.6177822,61.0562652 C60.9208597,60.6746502 60.2132439,60.181447 59.6720712,59.5589377 C57.4869238,57.0453901 59.6939227,51.9300465 62.4403895,51.0870864 C66.5208811,49.8347421 67.4344587,55.6054753 70.3473686,57.0982029 C72.0221834,57.9564958 73.7741757,56.7833706 75.0290082,55.5855427 C76.709867,53.980886 77.8554422,51.8550865 78.8444926,49.6918069 C79.6591961,47.9103126 80.4173338,46.1037748 81.2476898,44.3311394 C81.6354372,43.5033417 82.9778306,41.1632245 82.3036894,40.2272457 C85.2263628,39.6444311 88.4816125,40.8589547 90.9987164,42.4516859 C92.0390635,43.110142 92.8322255,43.8360622 93.387191,44.9984544 C93.5060568,45.2475263 93.7648651,45.9879274 94.0898476,46.0182522 C94.69487,46.0748129 94.4687615,45.335434 94.4090961,44.9836328" id="hair" fill="#181658" blush:color="Hair-500" blush:i="0.1.0.0.0.1"/></g></g><g id="Bottom/Standing" transform="translate(0.000000, 187.000000) scale(1 1)" blush:width="300" blush:height="239" blush:component="Bottom/Standing" blush:i="0.1.0.1" blush:value="Sprint" blush:viewBox="24 -0.6005025125627981 241.50000000000006 240.2010050251256"><g id="Bottom/Standing/Sprint" stroke="none" stroke-width="1" fill="none" fill-rule="evenodd" blush:viewBox="24 -0.6005025125627981 241.50000000000006 240.2010050251256" blush:i="0.1.0.1.0"><path d="M207.469522,-9.65840194 C188.34471,5.93412613 195.620321,142.644251 194.343793,144.365431 C193.776447,145.1304 163.468239,151.639612 103.419169,163.893066 L106.01112,174.474064 C176.253239,170.987921 213.421261,166.637951 217.515185,161.424153 C223.376511,153.959489 230.620797,112.212202 239.248044,36.1822931 L207.469522,-9.65840194 Z" id="SKIN" fill="#d4a181" transform="translate(171.333606, 82.407831) rotate(-55.000000) translate(-171.333606, -82.407831)" blush:color="Skin-500" blush:i="0.1.0.1.0.0"/><path d="M207.469522,-9.65840194 C188.34471,5.93412613 195.620321,142.644251 194.343793,144.365431 C193.776447,145.1304 163.468239,151.639612 103.419169,163.893066 L106.01112,174.474064 C176.253239,170.987921 213.421261,166.637951 217.515185,161.424153 C223.376511,153.959489 230.620797,112.212202 239.248044,36.1822931 L207.469522,-9.65840194 Z" id="shadow" fill-opacity=".1" fill="#000" transform="translate(171.333606, 82.407831) rotate(-55.000000) translate(-171.333606, -82.407831)" blush:i="0.1.0.1.0.1"/><path d="M113.540088,152.75781 L118.105527,169.799273 C170.465638,175.811529 204.983252,168.36956 217.132934,156.81223 C225.232723,149.107343 232.495664,107.473517 238.921759,31.9107522 L204.926407,-16.6396419 C159.401042,17.7063231 186.537309,130.140454 185.373895,132.713083 C184.210481,135.285712 156.597106,137.319958 113.540088,152.75781 Z" id="Pant" fill="#191847" transform="translate(176.230924, 77.646617) rotate(-55.000000) translate(-176.230924, -77.646617)" blush:color="Bottom-700" blush:i="0.1.0.1.0.2"/><g id="Right" transform="translate(219.664877, 196.035191) rotate(20.000000) translate(-219.664877, -196.035191) translate(190.664877, 185.535191)" fill="#E4E4E4" blush:i="0.1.0.1.0.3"><path d="M1.67813181,6.40192425 C0.559377268,9.38841089 4.54747351e-13,11.6229931 4.54747351e-13,13.1056708 C4.54747351e-13,14.908957 0.300414205,17.5404001 0.901242614,21 C2.99318117,21 21.7937852,21 57.3030548,21 C58.768738,16.1545073 57.9226607,13.5385816 54.7648228,13.1522232 C51.606985,12.7658647 48.9837155,12.4170139 46.8950143,12.1056708 L20.6799926,0.41888346 C20.1755635,0.194006431 19.584344,0.4206282 19.359467,0.925057349 C19.35562,0.933686736 19.3518954,0.94237021 19.3482945,0.951105155 L17.6632131,5.03869504 L17.6632131,5.03869504 C14.7398812,6.40265216 12.3643706,7.08463071 10.5366811,7.08463071 C9.05172687,7.08463071 7.00099246,6.48490544 4.38447792,5.28545491 L4.38448339,5.28544297 C3.38038273,4.82514778 2.19325534,5.26598921 1.73296014,6.27008987 C1.71312074,6.31336808 1.69483298,6.35734088 1.67813181,6.40192425 Z" id="shoe" blush:i="0.1.0.1.0.3.0"/></g><polygon id="SKIN" fill="#d4a181" points="130 0 78.2540376 124.226909 27.3958106 229.25029 39.3949124 229.25029 170.673688 0" blush:color="Skin-500" blush:i="0.1.0.1.0.4"/><g id="Left" transform="translate(25.000000, 218.000000)" fill="#E4E4E4" blush:i="0.1.0.1.0.5"><path d="M1.67813181,6.40192425 C0.559377268,9.38841089 0,11.6229931 0,13.1056708 C0,14.908957 0.300414205,17.5404001 0.901242614,21 C2.99318117,21 21.7937852,21 57.3030548,21 C58.768738,16.1545073 57.9226607,13.5385816 54.7648228,13.1522232 C51.606985,12.7658647 48.9837155,12.4170139 46.8950143,12.1056708 L20.6799926,0.41888346 C20.1755635,0.194006431 19.584344,0.4206282 19.359467,0.925057349 C19.35562,0.933686736 19.3518954,0.94237021 19.3482945,0.951105155 L17.6632131,5.03869504 L17.6632131,5.03869504 C14.7398812,6.40265216 12.3643706,7.08463071 10.5366811,7.08463071 C9.05172687,7.08463071 7.00099246,6.48490544 4.38447792,5.28545491 L4.38448339,5.28544297 C3.38038273,4.82514778 2.19325534,5.26598921 1.73296014,6.27008987 C1.71312074,6.31336808 1.69483298,6.35734088 1.67813181,6.40192425 Z" id="shoe" blush:i="0.1.0.1.0.5.0"/></g><path d="M31.9885488,207.432889 L58.6506859,212.432889 C79.2657755,182.124875 165.540767,57.851839 175,2.84217094e-14 L115.644073,2.84217094e-14 C84.0548806,41.821022 51.6389867,176.623522 31.9885488,207.432889 Z" id="Pant" fill="#393f82" blush:color="Bottom-500" blush:i="0.1.0.1.0.6"/></g></g><g id="Body" transform="translate(22.000000, 82.000000) scale(1 1)" blush:width="256" blush:height="187" blush:component="Body" blush:i="0.1.0.2" blush:value="Long Sleeve" blush:viewBox="17.920000000000016 -0.6404109589041127 238.07999999999993 181.8767123287671"><g id="Body/Long Sleeve" stroke="none" stroke-width="1" fill="none" fill-rule="evenodd" blush:viewBox="17.920000000000016 -0.6404109589041127 238.07999999999993 181.8767123287671" blush:i="0.1.0.2.0"><path d="M67.9697919,74.4496834 L89.8671837,74.5318631 C65.8560993,128.56567 53.3363474,156.856914 52.3079281,159.405597 C49.9939846,165.140133 54.8906002,173.873732 56.9845874,178.567103 C50.1645409,181.61887 50.8912241,170.316929 42.2879189,174.319492 C34.4352209,177.972846 28.4616931,184.59248 19.3890352,178.994371 C18.2736052,178.306117 17.0512757,175.714714 20.0045784,173.68967 C27.3623323,168.644547 37.9653015,159.814672 39.3979297,156.908251 C41.3515741,152.944826 50.8755281,125.458637 67.9697919,74.4496834 L67.9697919,74.4496834 Z M253.693154,55.3151968 C249.269111,59.00334 244.780296,63.0831966 245.568527,65.0514942 C246.356757,67.0197919 250.471061,66.2874533 251.152638,69.3148625 C251.607023,71.3331352 244.929759,71.6610844 231.120845,70.2987101 L199.083874,83 L192,65.3107899 L231.482876,59.9251648 C239.381053,55.5320264 246.646993,52.5579486 253.280695,51.0029313 C255.147488,50.9484265 258.117196,51.6270536 253.693154,55.3151968 Z" id="SKIN" fill="#ba8b72" blush:color="Skin-700" blush:i="0.1.0.2.0.0"/><path d="M123.473568,9.66927317 L140.652814,9.31280705 C148.188654,47.0006412 173.203746,69.0336905 223.790464,56.4079457 L234.893349,104.819132 C187.489073,115.210412 143.760505,99.6935282 130.595778,48.4746485 C127.187846,35.2156986 124.201379,21.3681777 123.473568,9.66927317 Z" id="Clothes-Back" fill="#c21b15" transform="translate(179.183459, 58.591470) rotate(5.000000) translate(-179.183459, -58.591470)" blush:color="Top-700" blush:i="0.1.0.2.0.1"/><path d="M119.477154,0 L119.490636,0.016 L145.467604,5.96527657 C145.467604,50.1976331 159.4168,78.578721 166.778942,111.015796 L167,112 L96.8436466,112.000086 C95.8553764,123.350958 95.2484879,135.017596 94.9322404,147 L94.9322404,147 L42.4016357,147 C54.3053653,83.6639633 79.4301113,34.6639633 117.775873,0 L117.775873,0 L119.477154,0 Z" id="Clothes" fill="#ff4133" blush:color="Top-500" blush:i="0.1.0.2.0.2"/><path d="M107.912412,48.2598889 C106.10448,76.1008541 107.167824,97.3475578 111.102445,112 L111.102445,112 L96.8437337,111.999086 C98.758489,90.0075171 102.104834,69.2012293 107.54268,49.5802231 Z" id="Shade" fill-opacity=".1" fill="#000" blush:i="0.1.0.2.0.3"/></g></g></g></g><g transform="translate(378.000000, 214.000000) scale(1 1)" blush:has-customizable-colors="true" blush:width="300" blush:height="426" id="Master/Pose/Sitting" blush:component="Master/Pose/Sitting" blush:i="0.2" blush:value="Sitting" blush:viewBox="-5.539772727272748 83.07 264.2045454545455 342.92999999999995"><g id="Master/Pose/Sitting" stroke="none" stroke-width="1" fill="none" fill-rule="evenodd" blush:has-customizable-colors="true" blush:viewBox="-5.539772727272748 83.07 264.2045454545455 342.92999999999995" blush:i="0.2.0"><g id="Head/Front" transform="translate(38.000000, 73.000000) scale(1 1)" blush:width="136" blush:height="104" blush:component="Head/Front" blush:i="0.2.0.0" blush:value="Pony" blush:viewBox="6.799999999999997 20.01047120418849 89.76 84.39790575916231"><g id="Head/Front/Pony" stroke="none" stroke-width="1" fill="none" fill-rule="evenodd" blush:viewBox="6.799999999999997 20.01047120418849 89.76 84.39790575916231" blush:i="0.2.0.0.0"><g id="Head" transform="translate(54.000000, 31.000000)" fill="#915b3c" blush:color="Skin-500" blush:i="0.2.0.0.0.0"><path d="M38.1433414,9.13393292 C43.9381521,19.9350547 43.249578,47.3329958 35.7603014,49.2634576 C32.773664,50.0333035 26.4113241,48.1475566 19.935865,44.2446031 L24,73 L0,73 L8.26160177,34.4893378 C3.65406109,29.0807313 0.535660132,22.452516 1.05677633,15.0254539 C2.55833022,-6.37502057 32.3485306,-1.66718886 38.1433414,9.13393292 Z" id="SKIN" blush:i="0.2.0.0.0.0.0"/></g><path d="M85,20 C90.5228475,20 95,24.4771525 95,30 C95,35.3410198 90.8127956,39.7040656 85.5419603,39.9855639 C82.52665,40.9159501 78.652205,41.5991191 74.3554723,41.8871633 C74.7731728,43.4546552 75,45.2371662 75,47.2515622 C75,49.0297471 74.8037305,50.9156116 74.4423323,52.830447 C73.5104419,51.7226907 72.2645499,51 71,51 C67.4624339,51 65,53.9101491 65,57 C65,60.921473 67.2638523,63.7583807 70.5686423,63.9853231 C67.5928462,69.6977453 63.4766199,74 59.3643383,74 C51.5536227,74 46,63.5572795 46,52.3295687 C46,51.9352687 46.0078091,51.5435904 46.0232171,51.1548362 C37.76115,56.8236574 31.3934269,68 20.4607455,68 C5.58722916,68 -0.31966425,38 20.4607455,38 C34.5937155,38 41.5452771,40.0606888 47.5363802,43.1079078 C48.717165,39.776125 50.5190091,36.9754084 52.7223037,35.019628 C53.2532741,34.4219859 54.0676154,33.8503284 55.1183254,33.3204668 L55.3390046,33.2026834 C55.9069881,32.9078805 56.491867,32.6638682 57.0909876,32.474461 C60.7039676,31.1456721 65.9406328,30.2079405 71.790603,30.003655 C72.8825295,29.9655241 73.954923,29.9543748 75.0010758,29.9684476 C75.0173488,24.4598244 79.4878505,20 85,20 Z" id="hair" fill="#2c1b18" blush:color="Hair-500" blush:i="0.2.0.0.0.1"/></g></g><g id="Bottom/Sitting" transform="translate(-44.000000, 260.000000) scale(1 1)" blush:width="300" blush:height="239" blush:component="Bottom/Sitting" blush:i="0.2.0.1" blush:value="Wheelchair" blush:viewBox="36 -0.6005025125627981 267 169.64195979899495"><g id="Bottom/Sitting/Wheelchair" stroke="none" stroke-width="1" fill="none" fill-rule="evenodd" blush:viewBox="36 -0.6005025125627981 267 169.64195979899495" blush:i="0.2.0.1.0"><path d="M280.000005,22.8655557 C279.971611,44.0311277 260.656682,144.512004 259.648224,150.855869 C258.639766,157.199734 247.83665,159.275085 247.20755,151.348454 C246.206544,138.735846 244.3468,95.012719 246.20755,74.6716648 C246.751052,68.7302859 247.324148,62.9873499 247.901347,57.6071399 C237.750733,75.8422626 222.314469,101.618252 201.593128,134.933778 L190.076573,129.672175 C199.120166,99.8760987 206.535776,78.8408618 212.323403,66.5664641 C222.233227,45.5497154 231.525307,27.551672 235.436043,21.2120072 C240.602279,12.8370615 248.982027,13.9496495 254.885272,18.0967837 C262.064167,8.35825282 280.010813,14.8043944 280.000005,22.8655557 Z" id="SKIN" fill="#915b3c" blush:color="Skin-500" blush:i="0.2.0.1.0.0"/><path d="M208.819223,123.340112 L213.936922,21.8299349 C217.625361,4.27739957 248.84365,12.4235349 248.830816,21.8299349 C248.801666,43.1853748 235.973522,116.956762 235.964839,123.319261 L208.819223,123.340112 Z" id="Leg-Back" fill="#56919c" transform="translate(228.825019, 67.419630) rotate(20.000000) translate(-228.825019, -67.419630)" blush:color="Bottom-700" blush:i="0.2.0.1.0.1"/><path d="M281,30.1765514 C281,56.7177303 269.366261,119.105994 269.358267,124.950436 L241.17615,124 C246.102422,69.7571864 248.179877,42.4520039 247.408516,42.0844525 C245.672952,41.2574617 176.262132,51.6911698 155.444697,52.4790258 C125.425854,53.615118 113.00766,35.1988173 112,0.25055648 L170.147646,0.25055648 C219.869047,6.18567094 252.548003,10.3136421 268.184514,12.63447 C278.225902,14.1248493 281,22.8651399 281,30.1765514 Z" id="Leg-Front" fill="#89c5cc" blush:color="Bottom-500" blush:i="0.2.0.1.0.2"/><g id="Left" transform="translate(214.036816, 137.322315) rotate(14.000000) translate(-214.036816, -137.322315) translate(185.036816, 126.822315)" fill="#E4E4E4" blush:i="0.2.0.1.0.3"><path d="M1.67813181,6.40192425 C0.559377268,9.38841089 4.54747351e-13,11.6229931 4.54747351e-13,13.1056708 C4.54747351e-13,14.908957 0.300414205,17.5404001 0.901242614,21 C2.99318117,21 21.7937852,21 57.3030548,21 C58.768738,16.1545073 57.9226607,13.5385816 54.7648228,13.1522232 C51.606985,12.7658647 48.9837155,12.4170139 46.8950143,12.1056708 L20.6799926,0.41888346 C20.1755635,0.194006431 19.584344,0.4206282 19.359467,0.925057349 C19.35562,0.933686736 19.3518954,0.94237021 19.3482945,0.951105155 L17.6632131,5.03869504 L17.6632131,5.03869504 C14.7398812,6.40265216 12.3643706,7.08463071 10.5366811,7.08463071 C9.05172687,7.08463071 7.00099246,6.48490544 4.38447792,5.28545491 L4.38448339,5.28544297 C3.38038273,4.82514778 2.19325534,5.26598921 1.73296014,6.27008987 C1.71312074,6.31336808 1.69483298,6.35734088 1.67813181,6.40192425 Z" id="shoe" blush:i="0.2.0.1.0.3.0"/></g><g id="Right" transform="translate(244.000000, 130.000000)" fill="#E4E4E4" blush:i="0.2.0.1.0.4"><path d="M1.67813181,6.40192425 C0.559377268,9.38841089 0,11.6229931 0,13.1056708 C0,14.908957 0.300414205,17.5404001 0.901242614,21 C2.99318117,21 21.7937852,21 57.3030548,21 C58.768738,16.1545073 57.9226607,13.5385816 54.7648228,13.1522232 C51.606985,12.7658647 48.9837155,12.4170139 46.8950143,12.1056708 L20.6799926,0.41888346 C20.1755635,0.194006431 19.584344,0.4206282 19.359467,0.925057349 C19.35562,0.933686736 19.3518954,0.94237021 19.3482945,0.951105155 L17.6632131,5.03869504 L17.6632131,5.03869504 C14.7398812,6.40265216 12.3643706,7.08463071 10.5366811,7.08463071 C9.05172687,7.08463071 7.00099246,6.48490544 4.38447792,5.28545491 L4.38448339,5.28544297 C3.38038273,4.82514778 2.19325534,5.26598921 1.73296014,6.27008987 C1.71312074,6.31336808 1.69483298,6.35734088 1.67813181,6.40192425 Z" id="shoe" blush:i="0.2.0.1.0.4.0"/></g><rect id="Base" fill="#393F82" x="245" y="151" width="53" height="7" rx="3.5" blush:i="0.2.0.1.0.5"/><path d="M109,6 L216,6 C221.522847,6 226,10.4771525 226,16 L226,65 L226,65 L103,65 C100.790861,65 99,63.209139 99,61 L99,16 C99,10.4771525 103.477153,6 109,6 Z" id="Seat" fill="#393F82" blush:i="0.2.0.1.0.6"/><path d="M216,6 L218.193678,6 C223.091205,6 227.268082,9.54701889 228.061559,14.3798408 L250,148 L250,148 L239.314286,148" id="Wheel-Stuff" fill="#393F82" blush:i="0.2.0.1.0.7"/><circle id="Front-Wheel" fill="#191847" cx="245" cy="150" r="18" blush:i="0.2.0.1.0.8"/><g id="Wheel" transform="translate(36.000000, 14.000000)" fill="#191847" blush:i="0.2.0.1.0.9"><path d="M76,0 C117.973641,0 152,34.026359 152,76 C152,117.973641 117.973641,152 76,152 C34.026359,152 0,117.973641 0,76 C0,34.026359 34.026359,0 76,0 Z M76,14 C41.7583455,14 14,41.7583455 14,76 C14,110.241654 41.7583455,138 76,138 C110.241654,138 138,110.241654 138,76 C138,41.7583455 110.241654,14 76,14 Z" blush:i="0.2.0.1.0.9.0"/><rect id="Wheel-Stuff" x="72" y="10" width="8" height="132" blush:i="0.2.0.1.0.9.1"/><rect id="Wheel-Stuff" transform="translate(76.000000, 76.000000) rotate(45.000000) translate(-76.000000, -76.000000)" x="72" y="10" width="8" height="132" rx="2" blush:i="0.2.0.1.0.9.2"/><rect id="Wheel-Stuff" transform="translate(76.000000, 76.000000) rotate(90.000000) translate(-76.000000, -76.000000)" x="72" y="10" width="8" height="132" rx="2" blush:i="0.2.0.1.0.9.3"/><rect id="Wheel-Stuff" transform="translate(76.000000, 76.000000) rotate(135.000000) translate(-76.000000, -76.000000)" x="72" y="10" width="8" height="132" rx="2" blush:i="0.2.0.1.0.9.4"/></g></g></g><g id="Body" transform="translate(-22.000000, 155.000000) scale(1 1)" blush:width="256" blush:height="187" blush:component="Body" blush:i="0.2.0.2" blush:value="Lab Coat" blush:viewBox="3.8400000000000034 -0.6404109589041127 239.36000000000007 216.45890410958904"><g id="Body/Lab Coat" stroke="none" stroke-width="1" fill="none" fill-rule="evenodd" blush:viewBox="3.8400000000000034 -0.6404109589041127 239.36000000000007 216.45890410958904" blush:i="0.2.0.2.0"><path d="M53.6671405,77.5359191 L71.3789189,80.1081345 C52.3668948,121.357659 42.1743233,143.172797 40.8012044,145.553548 C37.7116869,150.910237 41.3451669,160.240318 42.7655846,165.17944 C35.5871864,167.252341 37.8797238,156.161524 28.8030963,158.927786 C20.5183715,161.452702 13.6817028,167.176559 5.47644547,160.370261 C4.4676573,159.533467 3.61787693,156.797168 6.82426992,155.202852 C14.8125642,151.230829 26.541227,143.962534 28.3644086,141.283781 C30.8506424,137.630823 39.2848864,116.381535 53.6671405,77.5359191 L53.6671405,77.5359191 Z M190.358872,88.6100216 L220.545493,114.201672 C229.013042,117.13396 236.02085,120.535571 241.568917,124.406506 C242.849565,125.748514 244.32618,128.3882 238.68408,127.555307 C233.04198,126.722415 227.069879,126.100082 226.151873,127.980187 C225.233867,129.860292 228.504819,132.414187 226.740072,134.914152 C225.563574,136.580795 220.885448,131.868337 212.705694,120.776779 L182.108696,105.506639 L190.358872,88.6100216 Z" id="SKIN" fill="#915b3c" blush:color="Skin-500" blush:i="0.2.0.2.0.0"/><path d="M122.979272,9.21054221 L133.596123,4.63843187 C151.668356,40.3896079 176.923065,74.3010145 216.52753,101.346035 L208.768287,117.911928 C174.615844,101.621394 142.570612,89.4491188 127.58307,61.8321985 C122.552864,52.5632462 123.64558,20.7613641 122.979272,9.21054221 Z" id="Coat-Back" fill="#c5cfd6" transform="translate(169.753401, 61.275180) rotate(5.000000) translate(-169.753401, -61.275180)" blush:color="Top-700" blush:i="0.2.0.2.0.1"/><path d="M90,110 C121.438326,113.333333 146.183737,113.333333 164.236234,110 C166.472817,109.587022 166.825667,105.842388 165.788454,103.300966 C149.636353,63.7244027 138.560302,29.1916266 138.560302,1.70263734 C135.596594,3.1967882 130.409827,3.42070538 123,2.37438888 C103.086202,30.7026762 93.9325378,63.2061447 90,110 Z" id="Shirt" fill="#181F31" blush:i="0.2.0.2.0.2"/><path d="M118.078622,-0.518676213 L118.049621,-0.000676212716 L126.348425,5.5067062e-14 C128.261445,11.2512223 134.254034,162.198887 152.629948,214.064845 L153.190593,215.605966 L51.3853184,215.605966 C53.5924156,169.487497 71.0026785,114.088004 88.6395167,67.7290783 C73.044235,81.9998445 59.4517,106.181198 47.8618586,140.272687 L47.8618586,140.272687 L28.7926212,135.377648 C42.9709573,74.2822336 72.1213495,29.3765708 116.243798,0.660659727 L116.531583,5.5067062e-14 L117.269621,-0.000676212716 L118.078622,-0.518676213 Z" id="Coat-Front" fill="#f2f2f2" blush:color="Top-500" blush:i="0.2.0.2.0.3"/></g></g></g></g><g transform="translate(170.000000, 214.000000) scale(1 1)" blush:has-customizable-colors="true" blush:width="300" blush:height="426" id="Master/Pose/Standing" blush:component="Master/Pose/Standing" blush:i="0.3" blush:value="Standing" blush:viewBox="-1.2784090909090935 12.779999999999973 311.0795454545455 413.2199999999999"><g id="Master/Pose/Standing" stroke="none" stroke-width="1" fill="none" fill-rule="evenodd" blush:has-customizable-colors="true" blush:viewBox="-1.2784090909090935 12.779999999999973 311.0795454545455 413.2199999999999" blush:i="0.3.0"><g id="Head/Front" transform="translate(82.000000, 0.000000) scale(1 1)" blush:width="136" blush:height="104" blush:component="Head/Front" blush:i="0.3.0.0" blush:value="Airy" blush:viewBox="-69.36 -7.214659685863879 165.92 111.62303664921464"><g id="Head/Front/Airy" stroke="none" stroke-width="1" fill="none" fill-rule="evenodd" blush:viewBox="-69.36 -7.214659685863879 165.92 111.62303664921464" blush:i="0.3.0.0.0"><g id="Head" transform="translate(54.000000, 31.000000)" fill="#b28b67" blush:color="Skin-500" blush:i="0.3.0.0.0.0"><path d="M38.1433414,9.13393292 C43.9381521,19.9350547 43.249578,47.3329958 35.7603014,49.2634576 C32.773664,50.0333035 26.4113241,48.1475566 19.935865,44.2446031 L24,73 L0,73 L8.26160177,34.4893378 C3.65406109,29.0807313 0.535660132,22.452516 1.05677633,15.0254539 C2.55833022,-6.37502057 32.3485306,-1.66718886 38.1433414,9.13393292 Z" id="SKIN" blush:i="0.3.0.0.0.0.0"/></g><path d="M78.46395,27.6852568 C75.3008195,27.1665378 66.7839511,26.8099042 65.2132884,26.8101344 C64.2095609,26.8101344 63.1218259,27.0394482 62.5273474,26.1178184 C62.0405177,25.3631089 62.2188613,24.0866873 62.0735698,23.2108742 C61.9048664,22.1934668 61.6652388,21.1891827 61.4228569,20.1874312 C60.7331241,17.3368945 59.6901472,14.6249591 58.2308058,12.0787928 C55.4925323,7.30188179 51.4810649,3.56010629 46.4167508,1.38277606 C40.824292,-1.02133542 34.4959652,-1.57182675 28.4804855,-1.08418951 C22.0431327,-0.562477519 16.2158664,1.56258942 10.137955,3.56240864 C4.34603603,5.46806184 -1.7203989,6.21816672 -7.77811175,5.28755777 C-13.8815008,4.35004179 -18.4931849,1.0420286 -23.6412768,-2.09768297 C-28.9114778,-5.31199061 -34.9343023,-7.4142643 -41.1646205,-6.93100152 C-46.9804104,-6.47974137 -52.3405866,-4.0783927 -57.1496651,-0.870531642 C-61.6491098,2.13080883 -65.3617312,5.74181098 -67.4577843,10.8240133 C-69.7126711,16.2909379 -69.7106053,22.291777 -66.0025745,27.1232537 C-60.627938,34.1265349 -50.6501101,35.9375616 -42.3489869,35.7575181 C-37.5474828,35.6536822 -32.8318224,34.7771784 -28.298637,33.1828026 C-22.2530892,31.0563543 -17.0287938,27.4522592 -11.3729852,24.5280473 C-8.71871903,23.1558481 -5.97516638,22.0288489 -3.09940537,21.2170411 C-0.308799399,20.4289475 2.43980288,20.0674789 4.96645123,21.7532579 C7.63930914,23.5366564 10.0344377,25.2885128 13.0922147,26.4049212 C16.0255874,27.4759733 19.132713,28.0750442 22.2579713,28.0508696 C28.338637,28.0039017 34.3327705,26.1092997 40.2385356,24.8402457 C45.0544999,23.8055706 50.2074119,22.7743491 55.1172534,23.7689633 C57.1660236,24.1840766 60.1586146,25.0410104 60.8986141,27.1702216 C48.4441749,29.4274433 43.5527072,44.8301494 47.0638027,56.1372093 C48.958789,62.2400423 60.3498117,69.3741897 64.7787912,66.1658382 C67.5846772,64.1332552 65.881216,61.4648419 64.7787912,59.7033156 C62.6675892,56.3299158 61.9452634,51.9966672 65.8518364,49.6480423 C69.2215424,47.6224367 72.7645562,52.4327123 72.8315785,52.4274169 C73.7577255,52.3544325 81.7604403,47.8285457 87.2741651,41.224129 C92.7134751,41.5465656 93.5386971,37.9600245 92.2398964,35.026908 C90.9410957,32.0937915 82.8343998,28.4024381 78.46395,27.6852568 Z" id="hair" fill="#e8e1e1" blush:color="Hair-500" blush:i="0.3.0.0.0.1"/></g></g><g id="Bottom/Standing" transform="translate(0.000000, 187.000000) scale(1 1)" blush:width="300" blush:height="239" blush:component="Bottom/Standing" blush:i="0.3.0.1" blush:value="Sweatpants" blush:viewBox="84 -0.6005025125627981 154.49999999999997 240.2010050251256"><g id="Bottom/Standing/Sweatpants" stroke="none" stroke-width="1" fill="none" fill-rule="evenodd" blush:viewBox="84 -0.6005025125627981 154.49999999999997 240.2010050251256" blush:i="0.3.0.1.0"><polygon id="SKIN" fill="#b28b67" points="128 9.9475983e-14 164.630838 126.226909 181.860154 221 199.153197 221 181.890974 9.9475983e-14" blush:color="Skin-500" blush:i="0.3.0.1.0.0"/><polygon id="Shadow" fill-opacity=".1" fill="#000" points="128 9.9475983e-14 164.630838 126.226909 181.860154 221 199.153197 221 181.890974 9.9475983e-14" blush:i="0.3.0.1.0.1"/><path d="M111.537727,0 C114.093705,65.5742244 113.085665,101.340188 112.513606,107.297892 C111.941548,113.255595 108.69393,153.156298 86.5636874,223 L104.549973,223 C133.85784,155.996902 144.088936,116.096199 147.450326,107.297892 C150.811717,98.4995844 160.739403,62.7336205 175.233385,0 L111.537727,0 Z" id="SKIN" fill="#b28b67" blush:color="Skin-500" blush:i="0.3.0.1.0.2"/><path d="M127.213639,1.13686838e-13 C136.741891,43.4350253 153.221683,112.768359 176.653017,208 L201.946059,208 C203.814239,110.253828 195.86709,45.9204947 182.104613,1.13686838e-13 L127.213639,1.13686838e-13 Z" id="Pant" fill="#191847" blush:color="Bottom-700" blush:i="0.3.0.1.0.3"/><path d="M111.409919,0 C113.913164,65.5742244 107.425844,130.177256 87.3305078,209.020958 L114.316793,209.020958 C143.678541,143.017859 164.723052,78.7336205 179.105577,0 L111.409919,0 Z" id="Pant" fill="#393f82" blush:color="Bottom-500" blush:i="0.3.0.1.0.4"/><g id="Left" transform="translate(84.000000, 218.000000)" fill="#191847" blush:i="0.3.0.1.0.5"><path d="M0,18 L0.99242267,2 C6.8029179,3.69942511 14.0806841,3.03275844 22.8257214,0 C32.2287535,6.660617 44.0659431,11.2086712 58.3372903,13.6441626 C59.4261013,13.829999 60.1581292,14.8632891 59.9723163,15.9521041 C59.9602834,16.0226139 59.9444765,16.0924273 59.9249637,16.1612435 L58.5529375,21 L58.5529375,21 L22.8257214,21 L1.98484534,21 L0,18 Z" id="Shoe" blush:i="0.3.0.1.0.5.0"/></g><g id="Right" transform="translate(178.000000, 218.000000)" fill="#191847" blush:i="0.3.0.1.0.6"><path d="M0,18 L0.99242267,2 C6.8029179,3.69942511 14.0806841,3.03275844 22.8257214,0 C32.2287535,6.660617 44.0659431,11.2086712 58.3372903,13.6441626 C59.4261013,13.829999 60.1581292,14.8632891 59.9723163,15.9521041 C59.9602834,16.0226139 59.9444765,16.0924273 59.9249637,16.1612435 L58.5529375,21 L58.5529375,21 L22.8257214,21 L1.98484534,21 L0,18 Z" id="Shoe" blush:i="0.3.0.1.0.6.0"/></g></g></g><g id="Body" transform="translate(22.000000, 82.000000) scale(1 1)" blush:width="256" blush:height="187" blush:component="Body" blush:i="0.3.0.2" blush:value="Lab Coat" blush:viewBox="3.8400000000000034 -0.6404109589041127 239.36000000000007 216.45890410958904"><g id="Body/Lab Coat" stroke="none" stroke-width="1" fill="none" fill-rule="evenodd" blush:viewBox="3.8400000000000034 -0.6404109589041127 239.36000000000007 216.45890410958904" blush:i="0.3.0.2.0"><path d="M53.6671405,77.5359191 L71.3789189,80.1081345 C52.3668948,121.357659 42.1743233,143.172797 40.8012044,145.553548 C37.7116869,150.910237 41.3451669,160.240318 42.7655846,165.17944 C35.5871864,167.252341 37.8797238,156.161524 28.8030963,158.927786 C20.5183715,161.452702 13.6817028,167.176559 5.47644547,160.370261 C4.4676573,159.533467 3.61787693,156.797168 6.82426992,155.202852 C14.8125642,151.230829 26.541227,143.962534 28.3644086,141.283781 C30.8506424,137.630823 39.2848864,116.381535 53.6671405,77.5359191 L53.6671405,77.5359191 Z M190.358872,88.6100216 L220.545493,114.201672 C229.013042,117.13396 236.02085,120.535571 241.568917,124.406506 C242.849565,125.748514 244.32618,128.3882 238.68408,127.555307 C233.04198,126.722415 227.069879,126.100082 226.151873,127.980187 C225.233867,129.860292 228.504819,132.414187 226.740072,134.914152 C225.563574,136.580795 220.885448,131.868337 212.705694,120.776779 L182.108696,105.506639 L190.358872,88.6100216 Z" id="SKIN" fill="#b28b67" blush:color="Skin-500" blush:i="0.3.0.2.0.0"/><path d="M122.979272,9.21054221 L133.596123,4.63843187 C151.668356,40.3896079 176.923065,74.3010145 216.52753,101.346035 L208.768287,117.911928 C174.615844,101.621394 142.570612,89.4491188 127.58307,61.8321985 C122.552864,52.5632462 123.64558,20.7613641 122.979272,9.21054221 Z" id="Coat-Back" fill="#c5cfd6" transform="translate(169.753401, 61.275180) rotate(5.000000) translate(-169.753401, -61.275180)" blush:color="Top-700" blush:i="0.3.0.2.0.1"/><path d="M90,110 C121.438326,113.333333 146.183737,113.333333 164.236234,110 C166.472817,109.587022 166.825667,105.842388 165.788454,103.300966 C149.636353,63.7244027 138.560302,29.1916266 138.560302,1.70263734 C135.596594,3.1967882 130.409827,3.42070538 123,2.37438888 C103.086202,30.7026762 93.9325378,63.2061447 90,110 Z" id="Shirt" fill="#181F31" blush:i="0.3.0.2.0.2"/><path d="M118.078622,-0.518676213 L118.049621,-0.000676212716 L126.348425,5.5067062e-14 C128.261445,11.2512223 134.254034,162.198887 152.629948,214.064845 L153.190593,215.605966 L51.3853184,215.605966 C53.5924156,169.487497 71.0026785,114.088004 88.6395167,67.7290783 C73.044235,81.9998445 59.4517,106.181198 47.8618586,140.272687 L47.8618586,140.272687 L28.7926212,135.377648 C42.9709573,74.2822336 72.1213495,29.3765708 116.243798,0.660659727 L116.531583,5.5067062e-14 L117.269621,-0.000676212716 L118.078622,-0.518676213 Z" id="Coat-Front" fill="#f2f2f2" blush:color="Top-500" blush:i="0.3.0.2.0.3"/></g></g></g></g></g></svg>